<svg width="30px" height="64px" viewBox="0 0 30 64" version="1.1" xmlns="http://www.w3.org/2000/svg" xmlns:xlink="http://www.w3.org/1999/xlink">
    <title>Group 4</title>
    <g id="Index" stroke="none" stroke-width="1" fill="none" fill-rule="evenodd">
        <g id="Index---Desktop-v3" transform="translate(-211.000000, -1058.000000)">
           <g id="Group-4" transform="translate(212.000000, 1063.000000)">
                <path id="Line-4" d="M2.01930973,0.829182544 C2.57154975,0.836211039 3.01353103,1.28958775 3.00650253,1.84182778 C3.00116394,2.26128957 2.99734802,2.57493252 2.99505692,2.78254005 C2.75309854,24.7075699 4.37429532,38.2016374 7.72211335,43.0302421 C10.9373401,47.6676086 16.6354547,49.927464 24.9291214,49.7572603 L24.7160927,44.7727594 C24.6925199,44.220978 25.1207177,43.7545612 25.6724991,43.7309885 C26.1848676,43.7090995 26.6236308,44.0767473 26.7025708,44.5711673 L26.7142701,44.687395 L27.2264568,56.6764593 C27.2500296,57.2282408 26.8218318,57.6946575 26.2700504,57.7182303 C25.7576819,57.7401192 25.3189187,57.3724714 25.2399787,56.8780515 L25.2282794,56.7618238 L25.0145698,51.7558199 C16.0792131,51.9464438 9.72933656,49.4354276 6.07851597,44.169798 C2.39719167,38.8601725 0.74825722,25.13523 0.995178694,2.76046996 C0.997484859,2.55149716 1.00131274,2.23687116 1.00666449,1.81637535 C1.01369299,1.26413532 1.4670697,0.82215405 2.01930973,0.829182544 Z" fill="#979797" fill-rule="nonzero"></path>
                <circle id="Oval" stroke="#979797" fill="#D8D8D8" cx="2.5" cy="2.5" r="2"></circle>
                <path id="Line-6" d="M24.5,-4.5 C25.0128358,-4.5 25.4355072,-4.11395981 25.4932723,-3.61662113 L25.5,-3.5 L25.5,8.5 C25.5,9.05228475 25.0522847,9.5 24.5,9.5 C23.9871642,9.5 23.5644928,9.11395981 23.5067277,8.61662113 L23.5,8.5 L23.5,3.5 L5.5,3.5 C4.94771525,3.5 4.5,3.05228475 4.5,2.5 C4.5,1.98716416 4.88604019,1.56449284 5.38337887,1.50672773 L5.5,1.5 L23.5,1.5 L23.5,-3.5 C23.5,-4.05228475 23.9477153,-4.5 24.5,-4.5 Z" fill="#979797" fill-rule="nonzero"></path>
            </g>
        </g>
    </g>
</svg>